<?xml version="1.0" standalone="no"?>
<!DOCTYPE svg PUBLIC "-//W3C//DTD SVG 20010904//EN"
 "http://www.w3.org/TR/2001/REC-SVG-20010904/DTD/svg10.dtd">
<svg version="1.0" xmlns="http://www.w3.org/2000/svg"
 width="450.000000pt" height="450.000000pt" viewBox="0 0 450.000000 450.000000"
 preserveAspectRatio="xMidYMid meet">

<g transform="translate(0.000000,450.000000) scale(0.100000,-0.100000)"
fill="#000000" stroke="none">
<path d="M3971 2234 c0 -11 3 -14 6 -6 3 7 2 16 -1 19 -3 4 -6 -2 -5 -13z"/>
<path d="M3981 2194 c0 -11 3 -14 6 -6 3 7 2 16 -1 19 -3 4 -6 -2 -5 -13z"/>
<path d="M3982 2119 c-1 -8 -13 -26 -27 -39 -21 -20 -25 -21 -25 -6 0 9 4 15
9 12 5 -3 11 0 14 7 3 8 -1 14 -9 14 -8 0 -14 -4 -14 -8 0 -4 -17 -8 -37 -8
-42 -1 -271 -16 -498 -31 -82 -6 -199 -12 -260 -15 -60 -2 -193 -9 -295 -14
-102 -6 -293 -15 -425 -21 -156 -7 -310 -21 -440 -40 -110 -15 -258 -36 -330
-45 -122 -15 -321 -41 -495 -65 -41 -6 -88 -12 -105 -14 -16 -3 -52 -9 -79
-14 -53 -11 -226 0 -311 19 -64 15 -97 32 -148 77 -23 20 -36 29 -28 19 19
-24 6 -35 -44 -39 -31 -2 -40 -7 -39 -20 1 -10 -2 -15 -7 -12 -12 7 -11 0 2
-30 7 -14 16 -23 22 -19 6 3 7 1 3 -6 -14 -22 69 -134 151 -203 58 -48 158
-100 239 -124 69 -21 246 -25 307 -6 38 11 40 10 101 -41 176 -150 348 -223
565 -242 l65 -5 -22 23 c-12 13 -22 29 -22 35 0 15 23 15 38 0 9 -9 9 -4 0 20
-15 39 -5 51 22 27 19 -17 21 -17 40 0 18 16 20 16 26 1 3 -9 1 -23 -5 -30
-10 -12 -8 -13 7 -9 30 7 37 -16 12 -42 l-22 -23 44 5 c76 9 167 32 245 62
l76 30 56 -23 c116 -49 321 -90 342 -69 7 7 -2 12 -31 17 -35 6 -41 10 -38 29
3 25 19 26 89 7 28 -8 53 -10 65 -5 15 7 11 10 -21 14 -34 5 -40 9 -40 31 0
22 5 26 45 31 42 5 43 6 17 13 -15 5 -40 5 -55 1 -64 -16 -102 -17 -102 -3 0
21 21 38 47 38 13 0 23 5 23 11 0 8 -17 9 -55 4 -47 -5 -55 -4 -55 10 0 8 10
20 23 25 20 9 20 9 -8 7 -35 -2 -48 27 -15 36 14 4 19 12 18 28 -4 28 28 39
35 12 4 -17 5 -17 6 0 2 27 30 20 41 -10 14 -39 25 -56 37 -60 8 -3 8 6 0 32
-9 29 -8 38 5 51 20 20 33 4 51 -64 13 -52 31 -81 43 -70 3 4 -2 18 -11 32
-14 21 -15 29 -5 41 20 24 45 17 63 -17 15 -31 16 -32 16 -8 1 16 -14 40 -45
71 -26 26 -43 52 -40 58 12 19 44 12 65 -15 19 -24 21 -24 21 -7 0 11 -11 30
-25 43 -14 13 -25 29 -25 36 0 20 19 27 37 12 15 -12 15 -11 3 8 -8 12 -10 29
-6 40 7 18 8 18 22 -1 12 -16 18 -18 34 -7 11 6 24 12 30 12 13 0 13 -32 0
-48 -7 -9 -7 -9 2 -2 32 27 40 -16 8 -45 -11 -10 -20 -29 -20 -43 l0 -25 21
27 c21 27 69 36 69 13 0 -7 -20 -33 -45 -57 -31 -30 -45 -52 -44 -70 1 -24 1
-23 15 8 14 33 40 42 61 21 9 -9 7 -22 -9 -53 l-20 -41 25 24 c14 13 29 38 32
55 9 43 26 86 35 86 21 0 32 -30 21 -61 -14 -40 -14 -42 0 -33 6 3 19 26 29
50 20 47 33 54 48 28 8 -15 10 -15 15 0 10 26 27 18 27 -13 0 -21 6 -32 20
-36 27 -8 26 -35 -1 -35 -17 0 -19 -3 -10 -14 17 -20 -2 -29 -47 -22 -55 9
-72 -8 -22 -23 29 -9 40 -17 40 -32 0 -19 1 -19 28 -2 64 41 162 125 211 182
43 49 59 61 83 61 50 0 149 30 213 63 151 80 272 275 262 424 -2 32 -4 51 -5
42z m-3477 -221 c-19 -11 -30 -5 -21 11 4 6 14 7 22 4 15 -5 14 -7 -1 -15z"/>
<path d="M343 2035 c0 -22 2 -30 4 -17 2 12 2 30 0 40 -3 9 -5 -1 -4 -23z"/>
<path d="M352 1970 c0 -8 5 -30 11 -48 12 -31 12 -32 25 -11 11 18 11 20 0 17
-8 -3 -18 8 -25 26 -6 17 -11 24 -11 16z"/>
<path d="M3015 1340 c-3 -5 8 -9 28 -8 43 1 60 -9 54 -32 -4 -17 -1 -17 40 3
l44 22 -48 12 c-58 15 -110 17 -118 3z"/>
<path d="M3015 1270 c3 -5 13 -10 21 -10 8 0 12 5 9 10 -3 6 -13 10 -21 10 -8
0 -12 -4 -9 -10z"/>
<path d="M2795 1210 c-3 -5 -2 -10 4 -10 5 0 13 5 16 10 3 6 2 10 -4 10 -5 0
-13 -4 -16 -10z"/>
<path d="M3195 1170 c-3 -6 1 -7 9 -4 18 7 21 14 7 14 -6 0 -13 -4 -16 -10z"/>
<path d="M2588 1163 c7 -3 16 -2 19 1 4 3 -2 6 -13 5 -11 0 -14 -3 -6 -6z"/>
<path d="M3160 1111 c0 -6 4 -13 10 -16 6 -3 7 1 4 9 -7 18 -14 21 -14 7z"/>
<path d="M3006 1033 c-6 -14 -5 -15 5 -6 7 7 10 15 7 18 -3 3 -9 -2 -12 -12z"/>
<path d="M2855 970 c-3 -5 -1 -10 4 -10 6 0 11 5 11 10 0 6 -2 10 -4 10 -3 0
-8 -4 -11 -10z"/>
<path d="M2925 970 c3 -5 8 -10 11 -10 2 0 4 5 4 10 0 6 -5 10 -11 10 -5 0 -7
-4 -4 -10z"/>
<path d="M2138 903 c7 -3 16 -2 19 1 4 3 -2 6 -13 5 -11 0 -14 -3 -6 -6z"/>
<path d="M2178 793 c7 -3 16 -2 19 1 4 3 -2 6 -13 5 -11 0 -14 -3 -6 -6z"/>
<path d="M2140 741 c0 -6 4 -13 10 -16 6 -3 7 1 4 9 -7 18 -14 21 -14 7z"/>
<path d="M2910 500 c-9 -6 -10 -10 -3 -10 6 0 15 5 18 10 8 12 4 12 -15 0z"/>
<path d="M2875 440 c-16 -7 -17 -9 -3 -9 9 -1 20 4 23 9 7 11 7 11 -20 0z"/>
</g>
</svg>
