<?xml version="1.0" standalone="no"?>
<!DOCTYPE svg PUBLIC "-//W3C//DTD SVG 20010904//EN"
 "http://www.w3.org/TR/2001/REC-SVG-20010904/DTD/svg10.dtd">
<svg version="1.0" xmlns="http://www.w3.org/2000/svg"
 width="450.000000pt" height="450.000000pt" viewBox="0 0 450.000000 450.000000"
 preserveAspectRatio="xMidYMid meet">

<g transform="translate(0.000000,450.000000) scale(0.100000,-0.100000)"
fill="#000000" stroke="none">
<path d="M4111 3004 c0 -11 3 -14 6 -6 3 7 2 16 -1 19 -3 4 -6 -2 -5 -13z"/>
<path d="M4120 2890 c-1 -41 -5 -63 -7 -49 -5 29 25 28 -303 9 -249 -14 -520
-28 -780 -40 -124 -6 -286 -15 -360 -21 -74 -5 -173 -9 -220 -9 -86 2 -239
-13 -314 -30 -22 -5 -117 -18 -211 -30 -93 -11 -199 -25 -235 -30 -59 -9 -233
-32 -460 -61 -47 -6 -93 -15 -102 -20 -40 -21 -318 4 -391 35 -21 8 -56 30
-78 47 -41 32 -55 31 -16 -2 l22 -20 -36 14 c-32 13 -37 13 -46 -2 -14 -21
-49 -2 -45 25 2 18 2 18 -9 1 -8 -14 -7 -22 3 -35 12 -15 11 -16 -4 -3 -10 7
-18 20 -18 29 0 8 -3 13 -6 9 -9 -9 27 -98 37 -91 5 3 6 -1 4 -8 -9 -22 66
-128 134 -191 63 -58 166 -117 250 -143 70 -22 209 -29 295 -14 l75 13 63 -58
c119 -108 285 -189 453 -220 174 -33 404 -8 550 59 l53 24 43 -20 c198 -90
474 -103 684 -33 148 50 298 147 411 268 l69 74 65 6 c93 9 217 72 292 148 99
101 153 243 145 381 l-3 63 -4 -75z"/>
<path d="M473 2875 c0 -22 2 -30 4 -17 2 12 2 30 0 40 -3 9 -5 -1 -4 -23z"/>
<path d="M481 2774 c0 -11 3 -14 6 -6 3 7 2 16 -1 19 -3 4 -6 -2 -5 -13z"/>
<path d="M491 2734 c0 -11 3 -14 6 -6 3 7 2 16 -1 19 -3 4 -6 -2 -5 -13z"/>
<path d="M547 2704 c-11 -11 3 -24 18 -18 8 4 12 10 9 15 -6 11 -18 12 -27 3z"/>
<path d="M1405 2047 c-57 -80 -164 -195 -250 -268 -48 -41 -111 -94 -139 -118
-71 -61 -96 -104 -96 -166 1 -178 196 -260 331 -138 43 39 42 36 69 243 20
161 51 296 94 415 14 38 24 70 23 71 -1 1 -15 -16 -32 -39z m-105 -202 c0 -32
-169 -287 -215 -325 -9 -7 -42 -15 -73 -17 -31 -3 -60 -10 -64 -16 -15 -23 -8
54 7 83 9 16 75 81 148 143 72 63 138 121 146 130 17 21 51 22 51 2z"/>
<path d="M2571 1896 c-58 -72 -146 -157 -249 -240 -38 -30 -74 -67 -80 -81
-29 -62 1 -165 57 -198 35 -21 112 -22 149 -3 61 32 72 54 88 187 17 139 43
259 73 339 11 30 19 55 17 57 -1 2 -26 -26 -55 -61z m-46 -106 c7 -11 -90
-169 -139 -227 -20 -23 -44 -41 -54 -41 -9 1 -34 -2 -54 -5 -21 -4 -38 -3 -38
2 0 38 32 79 118 153 54 45 108 93 122 105 27 25 36 28 45 13z"/>
<path d="M2018 1686 c-68 -93 -185 -211 -312 -316 -135 -111 -166 -152 -166
-226 0 -61 46 -144 95 -171 69 -39 168 -26 231 29 46 41 49 50 69 209 21 176
47 300 89 423 19 55 34 101 33 102 -1 1 -19 -22 -39 -50z m-98 -191 c0 -31
-177 -299 -213 -322 -7 -5 -42 -13 -79 -19 l-68 -10 0 25 c0 43 34 85 132 168
51 43 115 99 143 125 50 48 85 61 85 33z"/>
<path d="M2843 1533 c-68 -96 -167 -197 -308 -314 -144 -120 -168 -152 -168
-229 0 -151 146 -242 279 -172 70 36 90 69 103 169 30 229 55 355 95 476 23
70 42 127 41 127 0 0 -20 -26 -42 -57z m-98 -183 c11 -18 -100 -200 -181 -296
-39 -47 -47 -51 -91 -53 -26 -2 -54 -3 -60 -4 -7 0 -13 -5 -14 -11 0 -6 -4 -2
-8 9 -10 25 3 71 26 98 10 11 70 64 133 117 63 54 126 109 139 124 26 27 46
33 56 16z"/>
<path d="M1338 1172 c-16 -26 -101 -110 -206 -202 -47 -41 -52 -50 -52 -87 0
-79 71 -129 141 -100 51 21 60 38 75 149 14 107 37 205 55 240 16 31 5 31 -13
0z m-48 -98 c0 -16 -112 -173 -127 -180 -10 -4 -30 -8 -45 -9 -42 -3 -36 28
15 74 23 21 62 57 87 79 41 38 70 52 70 36z"/>
</g>
</svg>
